<svg xmlns="http://www.w3.org/2000/svg" data-name="Layer 1" viewBox="0 0 100 125" x="0px" y="0px"><title>106all</title><path d="M79.33,62.19a2,2,0,0,0-.44-2.09L29,8.73A2,2,0,0,0,25.62,10l-5.07,71.3a2,2,0,0,0,3.15,1.77L39.49,71.87l6.81,18.7a2,2,0,0,0,2.55,1.2L63.8,86.41A2,2,0,0,0,65,83.84L58.19,65.25l19.45-1.76A2,2,0,0,0,79.33,62.19ZM55.24,61.5a2,2,0,0,0-1.7,2.68l7,19.15-11.17,4L42.35,68a2,2,0,0,0-3-.95L24.84,77.34l4.45-62.62L73.1,59.88Z"/><text x="0" y="115" fill="#000000" font-size="5px" font-weight="bold" font-family="'Helvetica Neue', Helvetica, Arial-Unicode, Arial, Sans-serif">Created by jai</text><text x="0" y="120" fill="#000000" font-size="5px" font-weight="bold" font-family="'Helvetica Neue', Helvetica, Arial-Unicode, Arial, Sans-serif">from the Noun Project</text></svg>